FILE "Syndicate (1995)(Domark)(EU)(M3).img" BINARY
  TRACK 01 MODE1/2352
    INDEX 01 00:00:00
  TRACK 02 AUDIO
    PREGAP 00:02:00
    INDEX 01 01:49:68
  TRACK 03 AUDIO
    INDEX 00 09:37:21
    INDEX 01 09:39:21
  TRACK 04 AUDIO
    INDEX 00 15:23:55
    INDEX 01 15:25:55
  TRACK 05 AUDIO
    INDEX 00 21:41:53
    INDEX 01 21:43:53
  TRACK 06 AUDIO
    INDEX 00 28:13:45
    INDEX 01 28:15:45
